<svg width="150" height="28" viewBox="0 0 150 28" fill="none" xmlns="http://www.w3.org/2000/svg">
<g clip-path="url(#clip0_167_3038)">
<path d="M11.1246 15.4491L16.2475 16.0785C15.9694 17.2348 15.5011 18.2155 14.857 19.0644C14.213 19.8987 13.3933 20.5574 12.398 21.0258C11.4027 21.4942 10.1293 21.7284 8.57776 21.7284C7.02624 21.7284 5.84064 21.582 4.84532 21.2746C3.85001 20.9819 3.00106 20.4989 2.28385 19.8256C1.56664 19.1523 1.01043 18.3765 0.600594 17.469C0.190758 16.5615 -0.0141602 15.3759 -0.0141602 13.8829C-0.0141602 12.39 0.234669 11.0434 0.732327 10.0041C1.09825 9.24301 1.58127 8.56971 2.21066 7.96959C2.84006 7.36947 3.48408 6.93036 4.14275 6.62299C5.19661 6.1546 6.54322 5.92041 8.18256 5.92041C10.4806 5.92041 12.2224 6.35952 13.4226 7.23774C14.6228 8.11596 15.4718 9.40402 15.9548 11.1019L10.8904 11.8191C10.7294 11.1751 10.4367 10.6921 10.0268 10.3554C9.60235 10.0334 9.04614 9.85776 8.34357 9.85776C7.45071 9.85776 6.7335 10.2091 6.17729 10.8824C5.62109 11.5703 5.34298 12.6095 5.34298 14C5.34298 15.2442 5.62109 16.1809 6.16265 16.825C6.70422 17.469 7.4068 17.791 8.25575 17.791C8.95832 17.791 9.55844 17.6007 10.0415 17.2055C10.5245 16.825 10.8758 16.2249 11.1246 15.4198" fill="#004EA2"/>
<path d="M18.384 0.519287H23.7704V4.45664H18.384V0.519287ZM18.384 6.25699H23.7704V21.3477H18.384V6.25699Z" fill="#004EA2"/>
<path d="M33.7091 0.519276V6.25698H36.6804V10.4871H33.7091V15.8296C33.7091 16.4736 33.7676 16.8981 33.8847 17.103C34.0604 17.425 34.3677 17.586 34.8068 17.586C35.202 17.586 35.7582 17.4689 36.4755 17.2201L36.8707 21.216C35.5387 21.5234 34.2945 21.6844 33.1382 21.6844C31.7916 21.6844 30.8109 21.5087 30.1669 21.1282C29.5375 20.7623 29.0545 20.1914 28.7618 19.4449C28.4544 18.6984 28.308 17.4836 28.308 15.7857V10.4724H26.3174V6.24234H28.308V3.47595L33.7091 0.504639V0.519276Z" fill="#004EA2"/>
<path d="M37.6904 6.25708H43.3696L46.2677 16.3127L48.9609 6.25708H54.2595L48.6828 22.3871C48.0388 24.2313 47.3947 25.4608 46.7361 26.1195C45.7993 27.027 44.3795 27.4807 42.4621 27.4807C41.6863 27.4807 40.4861 27.3636 38.8614 27.1441L38.4369 23.1043C39.2127 23.3677 40.0762 23.4995 41.0276 23.4995C41.657 23.4995 42.1693 23.3531 42.5645 23.0311C42.9597 22.7237 43.2964 22.1529 43.5598 21.3478L37.6611 6.25708H37.6904Z" fill="#004EA2"/>
<path d="M55.8401 6.25705H60.8752V8.4526C61.5924 7.53047 62.3243 6.88644 63.0708 6.49124C63.8026 6.09604 64.6955 5.90576 65.7347 5.90576C66.8617 5.90576 67.74 6.12532 68.3986 6.54979C69.0573 6.97426 69.5842 7.61829 70.0087 8.4526C70.8577 7.47192 71.6188 6.79862 72.3213 6.43269C73.0239 6.08141 73.8729 5.90576 74.8975 5.90576C76.4051 5.90576 77.576 6.38878 78.425 7.35482C79.2739 8.32087 79.6984 9.81384 79.6984 11.863V21.3478H74.2973V12.7412C74.2973 12.0533 74.1656 11.5556 73.9314 11.219C73.5655 10.6921 73.1264 10.4286 72.5848 10.4286C71.9554 10.4286 71.4431 10.6774 71.0626 11.1751C70.6674 11.6727 70.4771 12.4631 70.4771 13.5463V21.3332H65.076V13.0193C65.076 12.3607 65.0468 11.9069 64.9736 11.6727C64.8565 11.2922 64.6516 10.9848 64.3735 10.7506C64.0954 10.5164 63.7587 10.3993 63.3781 10.3993C62.7634 10.3993 62.2511 10.6482 61.8559 11.1458C61.4607 11.6435 61.2558 12.4778 61.2558 13.6195V21.3185H55.8547V6.25705H55.8401Z" fill="#004EA2"/>
<path d="M81.6892 13.8537C81.6892 11.5557 82.4064 9.65284 83.8555 8.15987C85.3045 6.6669 87.2513 5.92041 89.7103 5.92041C92.5206 5.92041 94.643 6.79863 96.092 8.55507C97.2483 9.96022 97.8338 11.702 97.8338 13.7658C97.8338 16.0931 97.1166 17.9959 95.6822 19.4743C94.2478 20.9526 92.2718 21.6991 89.7396 21.6991C87.4855 21.6991 85.6558 21.0843 84.2653 19.8548C82.5528 18.3326 81.7038 16.3273 81.7038 13.8537M87.0903 13.839C87.0903 15.1856 87.3391 16.1809 87.8514 16.825C88.3637 17.469 88.9931 17.791 89.7542 17.791C90.5153 17.791 91.174 17.469 91.6716 16.8396C92.1693 16.2102 92.4181 15.1856 92.4181 13.7805C92.4181 12.4778 92.1693 11.4971 91.657 10.8531C91.1593 10.2091 90.53 9.88704 89.7981 9.88704C89.0077 9.88704 88.3637 10.2091 87.8514 10.8677C87.3391 11.5264 87.0756 12.5071 87.0756 13.8244" fill="#004EA2"/>
<path d="M99.9119 0.519287H105.357V7.74997C105.898 7.13521 106.499 6.68147 107.186 6.38873C107.874 6.08135 108.621 5.93498 109.455 5.93498C111.168 5.93498 112.588 6.59364 113.7 7.92561C114.827 9.24294 115.383 11.1458 115.383 13.6194C115.383 15.2734 115.12 16.7224 114.607 17.9812C114.095 19.24 113.393 20.1768 112.485 20.7915C111.578 21.4063 110.582 21.7283 109.47 21.7283C108.518 21.7283 107.655 21.5087 106.879 21.0696C106.294 20.733 105.65 20.089 104.947 19.1522V21.377H99.9119V0.519287ZM105.313 13.7658C105.313 15.0685 105.547 16.0052 106.001 16.5907C106.455 17.1762 107.025 17.4689 107.728 17.4689C108.372 17.4689 108.914 17.1762 109.353 16.6054C109.792 16.0345 110.011 15.0685 110.011 13.7072C110.011 12.5216 109.792 11.6434 109.367 11.0726C108.943 10.5164 108.416 10.2383 107.816 10.2383C107.084 10.2383 106.484 10.531 106.015 11.1165C105.547 11.702 105.313 12.5802 105.313 13.7658Z" fill="#004EA2"/>
<path d="M117.623 0.519287H123.009V4.45664H117.623V0.519287ZM117.623 6.25699H123.009V21.3477H117.623V6.25699Z" fill="#004EA2"/>
<path d="M131.499 0.519287H126.098V21.3624H131.499V0.519287Z" fill="#004EA2"/>
<path d="M150 15.2442H139.198C139.3 16.1663 139.534 16.8689 139.9 17.3226C140.413 17.9813 141.1 18.3033 141.935 18.3033C142.462 18.3033 142.959 18.1716 143.442 17.8788C143.735 17.7032 144.042 17.3812 144.379 16.9274L149.692 17.4544C148.873 18.962 147.892 20.0598 146.75 20.7184C145.609 21.3771 143.955 21.6991 141.818 21.6991C139.959 21.6991 138.495 21.421 137.427 20.8502C136.358 20.2939 135.48 19.3865 134.777 18.1716C134.075 16.9421 133.723 15.493 133.723 13.839C133.723 11.4825 134.426 9.56502 135.831 8.11596C137.236 6.65226 139.183 5.92041 141.657 5.92041C143.662 5.92041 145.257 6.24242 146.428 6.90109C147.585 7.54512 148.477 8.49652 149.092 9.74067C149.707 10.9848 150 12.5949 150 14.5855V15.2442ZM144.511 12.4778C144.408 11.3507 144.13 10.5603 143.662 10.0773C143.208 9.5943 142.608 9.34547 141.876 9.34547C141.027 9.34547 140.339 9.71139 139.827 10.4432C139.505 10.897 139.285 11.5703 139.212 12.4778H144.511Z" fill="#004EA2"/>
</g>
<defs>
<clipPath id="clip0_167_3038">
<rect width="150" height="26.9614" fill="white" transform="translate(0 0.519287)"/>
</clipPath>
</defs>
</svg>
