<svg width="150" height="27" viewBox="0 0 150 27" fill="none" xmlns="http://www.w3.org/2000/svg">
<g clip-path="url(#clip0_176_3186)">
<path d="M11.1246 14.9296L16.2475 15.559C15.9694 16.7153 15.5011 17.696 14.857 18.5449C14.213 19.3792 13.3933 20.0379 12.398 20.5063C11.4027 20.9746 10.1293 21.2088 8.57776 21.2088C7.02624 21.2088 5.84064 21.0625 4.84532 20.7551C3.85001 20.4624 3.00106 19.9793 2.28385 19.306C1.56664 18.6327 1.01043 17.857 0.600594 16.9495C0.190758 16.042 -0.0141602 14.8564 -0.0141602 13.3634C-0.0141602 11.8704 0.234669 10.5238 0.732327 9.4846C1.09825 8.72348 1.58127 8.05018 2.21066 7.45006C2.84006 6.84994 3.48408 6.41083 4.14275 6.10346C5.19661 5.63507 6.54322 5.40088 8.18256 5.40088C10.4806 5.40088 12.2224 5.83999 13.4226 6.71821C14.6228 7.59643 15.4718 8.88449 15.9548 10.5824L10.8904 11.2996C10.7294 10.6556 10.4367 10.1725 10.0268 9.83589C9.60235 9.51388 9.04614 9.33823 8.34357 9.33823C7.45071 9.33823 6.7335 9.68952 6.17729 10.3628C5.62109 11.0508 5.34298 12.09 5.34298 13.4805C5.34298 14.7246 5.62109 15.6614 6.16265 16.3054C6.70422 16.9495 7.4068 17.2715 8.25575 17.2715C8.95832 17.2715 9.55844 17.0812 10.0415 16.686C10.5245 16.3054 10.8758 15.7053 11.1246 14.9003" fill="white"/>
<path d="M18.384 0H23.7704V3.93735H18.384V0ZM18.384 5.7377H23.7704V20.8285H18.384V5.7377Z" fill="white"/>
<path d="M33.7091 -1.14348e-05V5.73769H36.6804V9.96779H33.7091V15.3103C33.7091 15.9543 33.7676 16.3788 33.8847 16.5837C34.0604 16.9057 34.3677 17.0667 34.8068 17.0667C35.202 17.0667 35.7582 16.9496 36.4755 16.7008L36.8707 20.6967C35.5387 21.0041 34.2945 21.1651 33.1382 21.1651C31.7916 21.1651 30.8109 20.9895 30.1669 20.6089C29.5375 20.243 29.0545 19.6721 28.7618 18.9256C28.4544 18.1791 28.308 16.9643 28.308 15.2664V9.95315H26.3174V5.72306H28.308V2.95666L33.7091 -0.0146484V-1.14348e-05Z" fill="white"/>
<path d="M37.6904 5.73779H43.3696L46.2677 15.7934L48.9609 5.73779H54.2595L48.6828 21.8678C48.0388 23.712 47.3947 24.9415 46.7361 25.6002C45.7993 26.5077 44.3795 26.9614 42.4621 26.9614C41.6863 26.9614 40.4861 26.8444 38.8614 26.6248L38.4369 22.585C39.2127 22.8484 40.0762 22.9802 41.0276 22.9802C41.657 22.9802 42.1693 22.8338 42.5645 22.5118C42.9597 22.2044 43.2964 21.6336 43.5598 20.8285L37.6611 5.73779H37.6904Z" fill="white"/>
<path d="M55.8401 5.73801H60.8752V7.93356C61.5924 7.01143 62.3243 6.3674 63.0708 5.9722C63.8026 5.577 64.6955 5.38672 65.7347 5.38672C66.8617 5.38672 67.74 5.60627 68.3986 6.03075C69.0573 6.45522 69.5842 7.09925 70.0087 7.93356C70.8577 6.95288 71.6188 6.27958 72.3213 5.91365C73.0239 5.56236 73.8729 5.38672 74.8975 5.38672C76.4051 5.38672 77.576 5.86974 78.425 6.83578C79.2739 7.80182 79.6984 9.2948 79.6984 11.344V20.8288H74.2973V12.2222C74.2973 11.5343 74.1656 11.0366 73.9314 10.6999C73.5655 10.173 73.1264 9.90955 72.5848 9.90955C71.9554 9.90955 71.4431 10.1584 71.0626 10.656C70.6674 11.1537 70.4771 11.9441 70.4771 13.0272V20.8141H65.076V12.5003C65.076 11.8416 65.0468 11.3879 64.9736 11.1537C64.8565 10.7731 64.6516 10.4658 64.3735 10.2316C64.0954 9.99737 63.7587 9.88028 63.3781 9.88028C62.7634 9.88028 62.2511 10.1291 61.8559 10.6268C61.4607 11.1244 61.2558 11.9587 61.2558 13.1004V20.7995H55.8547V5.73801H55.8401Z" fill="white"/>
<path d="M81.6892 13.3341C81.6892 11.0361 82.4064 9.13331 83.8555 7.64034C85.3045 6.14737 87.2513 5.40088 89.7103 5.40088C92.5206 5.40088 94.643 6.2791 96.092 8.03554C97.2483 9.44069 97.8338 11.1825 97.8338 13.2463C97.8338 15.5736 97.1166 17.4764 95.6822 18.9547C94.2478 20.4331 92.2718 21.1796 89.7396 21.1796C87.4855 21.1796 85.6558 20.5648 84.2653 19.3353C82.5528 17.8131 81.7038 15.8078 81.7038 13.3341M87.0903 13.3195C87.0903 14.6661 87.3391 15.6614 87.8514 16.3054C88.3637 16.9495 88.9931 17.2715 89.7542 17.2715C90.5153 17.2715 91.174 16.9495 91.6716 16.3201C92.1693 15.6907 92.4181 14.6661 92.4181 13.2609C92.4181 11.9583 92.1693 10.9776 91.657 10.3335C91.1593 9.68952 90.53 9.36751 89.7981 9.36751C89.0077 9.36751 88.3637 9.68952 87.8514 10.3482C87.3391 11.0069 87.0756 11.9875 87.0756 13.3049" fill="white"/>
<path d="M99.9119 0H105.357V7.23068C105.898 6.61592 106.499 6.16218 107.186 5.86944C107.874 5.56206 108.621 5.41569 109.455 5.41569C111.168 5.41569 112.588 6.07436 113.7 7.40632C114.827 8.72365 115.383 10.6265 115.383 13.1001C115.383 14.7541 115.12 16.2032 114.607 17.4619C114.095 18.7207 113.393 19.6575 112.485 20.2722C111.578 20.887 110.582 21.209 109.47 21.209C108.518 21.209 107.655 20.9895 106.879 20.5504C106.294 20.2137 105.65 19.5697 104.947 18.6329V20.8577H99.9119V0ZM105.313 13.2465C105.313 14.5492 105.547 15.4859 106.001 16.0714C106.455 16.6569 107.025 16.9496 107.728 16.9496C108.372 16.9496 108.914 16.6569 109.353 16.0861C109.792 15.5152 110.011 14.5492 110.011 13.1879C110.011 12.0023 109.792 11.1241 109.367 10.5533C108.943 9.99707 108.416 9.71897 107.816 9.71897C107.084 9.71897 106.484 10.0117 106.015 10.5972C105.547 11.1827 105.313 12.0609 105.313 13.2465Z" fill="white"/>
<path d="M117.623 0H123.009V3.93735H117.623V0ZM117.623 5.7377H123.009V20.8285H117.623V5.7377Z" fill="white"/>
<path d="M131.499 0H126.098V20.8431H131.499V0Z" fill="white"/>
<path d="M150 14.7246H139.198C139.3 15.6468 139.534 16.3494 139.9 16.8031C140.413 17.4618 141.1 17.7838 141.935 17.7838C142.462 17.7838 142.959 17.652 143.442 17.3593C143.735 17.1837 144.042 16.8617 144.379 16.4079L149.692 16.9348C148.873 18.4424 147.892 19.5402 146.75 20.1989C145.609 20.8576 143.955 21.1796 141.818 21.1796C139.959 21.1796 138.495 20.9015 137.427 20.3306C136.358 19.7744 135.48 18.8669 134.777 17.6521C134.075 16.4225 133.723 14.9735 133.723 13.3195C133.723 10.9629 134.426 9.04549 135.831 7.59643C137.236 6.13273 139.183 5.40088 141.657 5.40088C143.662 5.40088 145.257 5.72289 146.428 6.38156C147.585 7.02559 148.477 7.97699 149.092 9.22114C149.707 10.4653 150 12.0754 150 14.066V14.7246ZM144.511 11.9583C144.408 10.8312 144.13 10.0408 143.662 9.55779C143.208 9.07477 142.608 8.82594 141.876 8.82594C141.027 8.82594 140.339 9.19186 139.827 9.92371C139.505 10.3775 139.285 11.0508 139.212 11.9583H144.511Z" fill="white"/>
</g>
<defs>
<clipPath id="clip0_176_3186">
<rect width="150" height="26.9614" fill="white"/>
</clipPath>
</defs>
</svg>
